<svg width="2003" height="2363" viewBox="0 0 2003 2363" fill="none" xmlns="http://www.w3.org/2000/svg">
<g opacity="0.4">
<path style="mix-blend-mode:color-dodge" d="M1895.75 911.486C2119.57 870.052 2258.21 645.872 2205.42 410.767C2152.62 175.662 1928.38 18.6606 1704.57 60.0948C1480.75 101.529 1342.11 325.709 1394.91 560.814C1447.7 795.919 1671.94 952.92 1895.75 911.486Z" fill="url(#paint0_radial_234_5884)"/>
<g style="mix-blend-mode:screen">
<path d="M1244.05 5.58546C1290.79 61.6454 1319.04 134.228 1322.01 205.814C1325.01 278.183 1300.06 382.021 1239.41 418.394C1172.29 458.655 1081.18 429.33 1015.94 474.605C955.81 516.328 945.645 605.398 946.232 684.859C946.813 764.296 951.21 851.166 907.171 911.174C872.264 958.779 813.466 979.123 755.934 989.768C698.401 1000.41 638.311 1003.75 585.014 1026.65C465.351 1078.06 402.704 1235.07 446.924 1372.76" stroke="url(#paint1_linear_234_5884)" stroke-width="2.44298" stroke-miterlimit="10"/>
<path d="M1288.44 11.493C1337.34 68.6725 1366.12 144.433 1367.05 217.885C1368.01 292.047 1338.42 392.876 1275.5 427.643C1208.57 464.615 1120.02 436.707 1055.12 477.813C994.927 515.629 981.022 598.034 977.594 674.17C974.138 751.15 975.258 836.726 934.506 899.235C895.702 958.716 827.275 989.413 757.365 1000.17C699.171 1009.11 638.783 1011.79 584.925 1033.68C469.145 1080.74 406.729 1228.59 445.263 1360.08" stroke="url(#paint2_linear_234_5884)" stroke-width="2.44298" stroke-miterlimit="10"/>
<path d="M1332.88 17.3991C1383.93 75.6816 1413.24 154.687 1412.12 229.964C1411.03 305.905 1376.88 403.804 1311.61 436.925C1244.96 470.729 1159.05 444.357 1094.35 481.058C1034.24 515.154 1016.39 590.713 1008.99 663.481C1001.4 738.061 999.989 822.927 961.856 887.279C919.342 959.042 841.123 999.959 758.742 1010.62C700.023 1018.21 639.257 1019.88 584.813 1040.74C473.04 1083.56 410.762 1222.1 443.585 1347.38" stroke="url(#paint3_linear_234_5884)" stroke-width="2.44298" stroke-miterlimit="10"/>
<path d="M1377.34 23.3091C1430.53 82.7058 1460.39 164.941 1457.22 242.107C1454.07 319.862 1415.42 414.861 1347.71 446.272C1281.46 477.006 1197.99 451.911 1133.61 484.325C1073.49 514.582 1051.7 583.392 1040.38 652.772C1028.59 724.983 1025.11 809.504 989.2 875.335C943.189 959.689 854.986 1010.77 760.013 1021.18C700.807 1027.66 639.659 1028.1 584.582 1047.89C476.917 1086.61 414.721 1215.65 441.816 1334.73" stroke="url(#paint4_linear_234_5884)" stroke-width="2.44298" stroke-miterlimit="10"/>
<path d="M1421.87 29.2126C1477.22 89.7272 1507.62 175.237 1502.4 254.251C1497.19 333.832 1454.06 425.992 1383.86 455.597C1318.06 483.343 1237.01 459.437 1172.96 487.546C1112.82 513.954 1087.04 576.025 1071.86 641.997C1055.79 711.844 1050.6 796.233 1016.61 863.309C967.357 960.533 868.951 1021.78 761.308 1031.76C701.657 1037.3 640.102 1036.38 584.405 1055.07C480.944 1089.77 418.747 1209.19 440.085 1322.03" stroke="url(#paint5_linear_234_5884)" stroke-width="2.44298" stroke-miterlimit="10"/>
<path d="M1466.44 35.1168C1523.96 96.7571 1554.89 185.536 1547.59 266.461C1540.32 347.855 1492.78 437.307 1420.05 465.009C1354.79 489.863 1276.05 467.023 1212.36 490.857C1152.19 513.356 1122.31 568.731 1103.35 631.241C1082.9 698.736 1076.31 783.14 1044.04 851.334C991.822 961.659 882.887 1033.12 762.516 1042.48C702.447 1047.17 640.505 1044.85 584.128 1062.36C484.956 1093.2 422.7 1202.82 438.284 1309.39" stroke="url(#paint6_linear_234_5884)" stroke-width="2.44298" stroke-miterlimit="10"/>
<path d="M1511.02 41.0264C1570.71 103.825 1602.16 195.895 1592.8 278.716C1583.45 361.96 1531.53 448.765 1456.2 474.47C1391.54 496.539 1315.07 474.628 1251.74 494.172C1191.54 512.747 1157.45 561.369 1134.81 620.44C1109.87 685.568 1102.13 770.098 1071.42 839.298C1016.54 962.98 896.786 1044.67 763.615 1053.24C703.147 1057.15 640.833 1053.38 583.75 1069.69C488.965 1096.78 426.594 1196.4 436.363 1296.72" stroke="url(#paint7_linear_234_5884)" stroke-width="2.44298" stroke-miterlimit="10"/>
<path d="M1555.66 46.931C1617.53 110.872 1649.51 206.272 1638.06 290.983C1626.63 376.066 1570.37 460.334 1492.37 483.919C1428.34 503.288 1354.11 482.216 1291.17 497.45C1230.92 512.041 1192.54 553.897 1166.32 609.574C1136.77 672.296 1128.13 757.038 1098.83 827.228C1041.57 964.457 910.716 1056.49 764.719 1064.1C703.844 1067.27 641.216 1062.09 583.412 1077.12C493.069 1100.6 430.536 1190.06 434.489 1284.08" stroke="url(#paint8_linear_234_5884)" stroke-width="2.44298" stroke-miterlimit="10"/>
<path d="M1600.31 52.8409C1664.35 117.933 1696.87 216.661 1683.33 303.323C1669.81 390.281 1609.26 472.124 1528.55 493.465C1465.2 510.215 1393.18 489.841 1330.66 500.819C1270.36 511.381 1227.59 546.412 1197.85 598.72C1163.58 658.974 1154.23 744.052 1126.27 815.156C1066.93 966.169 924.647 1068.58 765.755 1075.05C704.493 1077.56 641.553 1070.95 582.986 1084.61C497.16 1104.6 434.411 1183.72 432.553 1271.42" stroke="url(#paint9_linear_234_5884)" stroke-width="2.44298" stroke-miterlimit="10"/>
<path d="M1645.02 58.7467C1711.24 125 1744.3 227.1 1728.65 315.68C1713.04 404.504 1648.19 484.088 1564.76 503.029C1502.12 517.246 1432.27 497.431 1370.16 504.158C1309.81 510.679 1262.6 538.788 1229.39 587.78C1190.29 645.45 1180.38 730.968 1153.71 803.031C1092.61 967.993 938.582 1080.94 766.772 1086.09C705.125 1087.93 641.905 1080.01 582.569 1092.17C501.335 1108.8 438.339 1177.4 430.609 1258.75" stroke="url(#paint10_linear_234_5884)" stroke-width="2.44298" stroke-miterlimit="10"/>
<path d="M1689.75 64.6542C1758.15 132.078 1791.72 237.554 1774.02 328.107C1756.32 418.837 1687.2 496.277 1600.99 512.639C1539.07 524.413 1471.42 505.054 1409.72 507.516C1349.33 509.924 1297.58 531.044 1260.96 576.797C1216.96 631.787 1206.66 717.85 1181.19 790.845C1118.66 969.979 952.535 1093.55 767.756 1097.18C705.717 1098.4 642.237 1089.24 582.104 1099.77C505.491 1113.16 442.212 1171.03 428.644 1246.04" stroke="url(#paint11_linear_234_5884)" stroke-width="2.44298" stroke-miterlimit="10"/>
<path d="M1734.49 70.5669C1805.06 139.2 1839.18 248.067 1819.37 340.569C1799.56 433.22 1726.18 508.661 1637.2 522.309C1576.02 531.701 1510.54 512.677 1449.27 510.902C1388.83 509.154 1332.5 523.209 1292.52 565.804C1243.55 617.988 1232.96 704.738 1208.63 778.686C1144.98 972.168 966.432 1106.47 768.671 1108.43C706.247 1109.05 642.561 1098.75 581.598 1107.5C509.634 1117.8 446.067 1164.77 426.619 1233.38" stroke="url(#paint12_linear_234_5884)" stroke-width="2.44298" stroke-miterlimit="10"/>
<path d="M1779.28 76.4761C1852.03 146.301 1886.69 258.589 1864.77 353.104C1842.86 447.668 1765.22 521.281 1673.46 532.024C1612.99 539.104 1549.77 520.304 1488.91 514.322C1428.45 508.37 1367.52 515.229 1324.18 554.75C1270.2 603.972 1259.39 691.557 1236.17 766.452C1171.7 974.442 980.397 1119.65 769.619 1119.77C706.796 1119.81 642.924 1108.55 581.109 1115.31C513.821 1122.66 449.979 1158.52 424.614 1220.71" stroke="url(#paint13_linear_234_5884)" stroke-width="2.44298" stroke-miterlimit="10"/>
<path d="M422.533 1208.05C453.784 1152.31 517.883 1127.75 580.518 1123.24C643.175 1118.73 707.218 1130.71 770.439 1131.24C994.251 1133.15 1198.63 976.913 1263.62 754.225C1285.77 678.315 1296.73 589.818 1355.76 543.666C1402.48 507.151 1468.07 507.568 1528.51 517.779C1588.98 527.985 1649.91 546.667 1709.69 541.83C1804.22 534.184 1886.15 462.222 1910.16 365.702C1934.2 269.179 1899.01 153.421 1824.07 82.3917" stroke="url(#paint14_linear_234_5884)" stroke-width="2.44298" stroke-miterlimit="10"/>
<path d="M1823.49 92.0989C1850.94 122.643 1869.36 170.57 1880.19 223.023C1891.07 275.694 1893.61 332.746 1881.38 384.781C1859.33 478.635 1782.41 549.508 1693.62 560.748C1637.47 567.907 1579.9 552.795 1522.25 545.819C1464.04 538.763 1400.4 540.612 1353.85 575.438C1327.86 594.923 1310.47 621.827 1297.03 651.829C1280.02 689.55 1269.22 732.12 1255.19 770.884C1238.62 816.902 1215.49 859.496 1187.15 897.92C1148.08 950.864 1098.79 995.839 1043.24 1032.83C981.785 1073.75 913.43 1104.7 842.065 1119.75C817.081 1125.01 791.688 1128.35 766.025 1129.56C718.446 1131.81 670.265 1127.4 622.07 1128.52C609.189 1128.82 596.283 1129.5 583.403 1130.78C522.314 1136.96 458.994 1160.24 426.692 1209.51" stroke="url(#paint15_linear_234_5884)" stroke-width="2.44298" stroke-miterlimit="10"/>
<path d="M1823.02 101.657C1840.52 127.315 1849.88 176.571 1856.34 231.751C1862.85 287.125 1865.09 348.007 1852.71 403.773C1832.45 494.904 1760.71 564.797 1677.67 579.627C1625.12 589.111 1570.88 577.591 1516.06 573.814C1460.08 569.938 1398.39 574.025 1352 607.167C1326.16 625.684 1308.18 650.838 1293.66 678.493C1275.33 713.398 1262.52 752.314 1246.84 787.536C1228.34 829.378 1203.85 867.771 1174.58 902.225C1134.22 949.688 1084.34 989.644 1029.12 1024.77C968.056 1063.64 902.068 1096.21 834.012 1114.32C810.209 1120.64 786.055 1125.27 761.615 1127.91C716.318 1132.83 670.372 1131.56 623.809 1134.75C611.363 1135.61 598.868 1136.74 586.327 1138.37C526.802 1146.23 464.257 1168.22 430.88 1211.04" stroke="url(#paint16_linear_234_5884)" stroke-width="2.41972" stroke-miterlimit="10"/>
<path d="M1822.75 110.878C1830.33 131.656 1830.6 182.257 1832.7 240.178C1834.86 298.265 1836.76 363.002 1824.26 422.482C1805.68 510.863 1739.21 579.825 1661.9 598.251C1612.95 610.035 1562.02 602.183 1510.05 601.547C1456.26 600.876 1396.53 607.149 1350.33 638.637C1324.64 656.193 1306.02 679.561 1290.47 704.917C1270.8 736.996 1255.96 772.222 1238.65 803.961C1218.15 841.574 1192.34 875.848 1162.16 906.338C1120.54 948.356 1070.03 983.262 1015.14 1016.56C954.428 1053.39 890.816 1087.57 826.087 1108.76C803.445 1116.16 780.544 1122.07 757.345 1126.13C714.33 1133.73 670.608 1135.59 625.648 1140.86C613.651 1142.24 601.522 1143.84 589.324 1145.84C531.354 1155.37 469.561 1176.12 435.143 1212.46" stroke="url(#paint17_linear_234_5884)" stroke-width="2.41972" stroke-miterlimit="10"/>
<path d="M1822.62 119.875C1820.25 135.779 1811.47 187.733 1809.22 248.403C1807.01 309.22 1808.53 377.779 1795.95 441.056C1778.91 526.675 1717.87 594.769 1646.25 616.775C1600.91 630.885 1553.23 626.709 1504.13 629.185C1452.48 631.782 1394.76 640.205 1348.72 670.026C1323.17 686.648 1303.89 708.213 1287.32 731.276C1266.28 760.539 1249.46 792.096 1230.51 820.359C1208.07 853.792 1180.88 883.912 1149.76 910.448C1106.87 947.003 1055.7 976.918 1001.19 1008.36C940.847 1043.16 879.582 1078.95 818.153 1103.23C796.665 1111.7 775.019 1118.91 753.061 1124.39C712.324 1134.68 670.821 1139.67 627.488 1147.02C615.924 1148.96 604.182 1151.03 592.335 1153.34C535.917 1164.55 474.863 1184.03 439.385 1213.94" stroke="url(#paint18_linear_234_5884)" stroke-width="2.39645" stroke-miterlimit="10"/>
<path d="M1822.5 128.86C1810.18 139.889 1792.34 193.22 1785.73 256.622C1779.14 320.169 1780.24 392.562 1767.62 459.628C1752.03 542.429 1696.44 609.55 1630.61 635.296C1588.82 651.644 1544.43 651.291 1498.24 656.821C1448.72 662.738 1393.02 673.261 1347.16 701.41C1321.75 717.074 1301.82 736.859 1284.21 757.628C1261.81 784.05 1243.03 811.984 1222.4 836.753C1198.02 866.003 1169.44 891.944 1137.41 914.545C1093.23 945.664 1041.46 970.554 987.262 1000.15C927.294 1032.91 868.36 1070.35 810.274 1097.72C789.947 1107.27 769.545 1115.73 748.833 1122.67C710.368 1135.62 671.097 1143.78 629.358 1153.18C618.242 1155.65 606.886 1158.18 595.359 1160.87C540.492 1173.75 480.199 1191.97 443.661 1215.44" stroke="url(#paint19_linear_234_5884)" stroke-width="2.39645" stroke-miterlimit="10"/>
<path d="M1822.38 137.845C1800.12 143.969 1773.21 198.683 1762.22 264.841C1751.29 331.117 1751.89 407.308 1739.29 478.207C1725.07 558.176 1675.03 624.482 1614.94 653.828C1576.76 672.505 1535.61 675.984 1492.31 684.475C1444.9 693.766 1391.23 706.337 1345.53 732.819C1320.26 747.523 1299.66 765.533 1281.04 784.003C1257.24 807.587 1236.54 831.891 1214.22 853.165C1187.92 878.228 1157.94 900.016 1124.99 918.656C1079.54 944.309 1027.13 964.201 973.263 991.946C913.661 1022.65 857.08 1061.73 802.295 1092.19C783.144 1102.81 763.976 1112.56 744.482 1120.94C708.296 1136.58 671.223 1147.87 631.127 1159.34C620.444 1162.36 609.475 1165.36 598.306 1168.39C544.99 1182.95 485.442 1199.92 447.843 1216.95" stroke="url(#paint20_linear_234_5884)" stroke-width="2.39645" stroke-miterlimit="10"/>
<path d="M1822.26 146.847C1790.05 148.092 1754.07 204.159 1738.74 273.07C1723.44 342.078 1723.51 422.048 1710.98 496.796C1698.05 573.918 1653.67 639.417 1599.33 672.388C1564.72 693.373 1526.82 700.762 1486.45 712.156C1441.15 724.924 1389.52 739.442 1344 764.25C1318.88 778.02 1297.59 794.229 1277.98 810.395C1252.82 831.135 1230.19 851.808 1206.18 869.585C1177.96 890.484 1146.58 908.092 1112.71 922.769C1066 942.979 1012.96 957.846 959.415 983.764C900.184 1012.43 845.959 1053.16 794.469 1086.69C776.479 1098.39 758.561 1109.42 740.307 1119.22C706.401 1137.55 671.548 1151.98 633.053 1165.52C622.824 1169.1 612.214 1172.54 601.381 1175.91C549.617 1192.15 490.809 1207.86 452.172 1218.44" stroke="url(#paint21_linear_234_5884)" stroke-width="2.37318" stroke-miterlimit="10"/>
<path d="M1822.11 155.931C1779.98 152.291 1734.89 209.715 1715.22 281.373C1695.56 353.079 1695.01 436.836 1682.64 515.436C1670.96 589.661 1632.27 654.415 1583.67 690.96C1552.65 714.277 1518.03 725.646 1480.53 739.852C1437.37 756.169 1387.75 772.561 1342.39 795.696C1317.42 808.505 1295.45 822.911 1274.84 836.798C1248.26 854.701 1223.72 871.736 1198.02 885.989C1167.89 902.694 1135.12 916.141 1100.32 926.857C1052.32 941.623 998.662 951.433 945.452 975.523C886.596 1002.15 834.722 1044.49 786.565 1081.14C769.729 1093.9 753.069 1106.23 736.057 1117.46C704.431 1138.48 671.802 1156.03 634.931 1171.64C625.129 1175.75 614.935 1179.67 604.438 1183.4C554.228 1201.31 496.168 1215.77 456.466 1219.88" stroke="url(#paint22_linear_234_5884)" stroke-width="2.37318" stroke-miterlimit="10"/>
<path d="M1821.8 165.044C1769.72 156.525 1715.58 215.307 1691.53 289.672C1667.5 364.085 1666.26 451.571 1654.13 534.014C1643.62 605.336 1610.72 669.312 1567.86 709.422C1540.44 735.065 1509.13 750.507 1474.49 767.396C1433.5 787.379 1385.88 805.519 1340.69 827.001C1315.87 838.869 1293.21 851.444 1271.6 863.05C1243.63 878.081 1217.2 891.523 1189.79 902.252C1157.77 914.806 1123.57 924.023 1087.86 930.772C1038.59 940.062 984.295 944.871 931.439 967.097C872.965 991.68 823.426 1035.63 778.6 1075.35C762.95 1089.2 747.522 1102.8 731.73 1115.46C702.384 1139.14 671.986 1159.83 636.721 1177.52C627.375 1182.18 617.548 1186.57 607.389 1190.64C558.739 1210.22 501.451 1223.41 460.672 1221.07" stroke="url(#paint23_linear_234_5884)" stroke-width="2.37318" stroke-miterlimit="10"/>
<path d="M1821.47 174.186C1759.44 160.792 1696.25 220.901 1667.87 297.985C1639.49 375.094 1637.45 466.265 1625.63 552.555C1616.27 620.923 1589.19 684.185 1552.05 727.833C1528.26 755.818 1500.29 775.375 1468.43 794.908C1429.7 818.639 1383.99 838.438 1338.99 858.236C1314.32 869.139 1290.98 879.883 1268.37 889.232C1239 901.368 1210.67 911.244 1181.59 918.443C1147.67 926.849 1112.06 931.857 1075.44 934.64C1024.92 938.48 969.997 938.261 917.476 958.626C859.363 981.166 812.211 1026.73 770.712 1069.5C756.22 1084.41 742.051 1099.31 727.503 1113.38C700.442 1139.74 672.272 1163.56 638.637 1183.31C629.725 1188.52 620.281 1193.35 610.483 1197.76C563.394 1219.02 506.857 1230.93 465.048 1222.14" stroke="url(#paint24_linear_234_5884)" stroke-width="2.34992" stroke-miterlimit="10"/>
<path d="M1821.12 183.356C1749.18 165.085 1676.92 226.522 1644.17 306.3C1611.42 386.102 1608.52 480.94 1597.11 571.102C1588.82 636.551 1567.74 699.118 1536.21 746.243C1516.09 776.608 1491.5 800.321 1462.37 822.406C1426.02 849.987 1382.09 871.338 1337.27 889.457C1312.74 899.395 1288.74 908.304 1265.14 915.396C1234.37 924.638 1204.15 930.947 1173.37 934.624C1137.55 938.886 1100.53 939.687 1063.01 938.505C1011.2 936.879 955.683 931.654 903.52 950.155C845.793 970.648 801 1017.81 762.812 1063.65C749.483 1079.64 736.54 1095.78 723.27 1111.33C698.494 1140.36 672.551 1167.3 640.529 1189.13C632.068 1194.88 623.019 1200.19 613.537 1204.95C568.01 1227.87 512.232 1238.53 469.366 1223.29" stroke="url(#paint25_linear_234_5884)" stroke-width="2.34992" stroke-miterlimit="10"/>
<path d="M1820.77 192.545C1738.9 169.405 1657.6 232.187 1620.48 314.655C1583.37 397.147 1579.48 495.616 1568.6 589.675C1561.37 652.185 1546.2 713.993 1520.42 764.693C1503.89 797.375 1482.85 825.311 1456.32 849.94C1422.46 881.426 1380.22 904.269 1335.58 920.705C1311.21 929.703 1286.5 936.71 1261.92 941.595C1229.74 947.871 1197.64 950.768 1165.19 950.842C1127.46 951.013 1089.05 947.535 1050.6 942.419C997.534 935.35 941.392 925.079 889.571 941.744C832.224 960.166 789.796 1008.94 754.946 1057.88C742.797 1074.91 731.092 1092.35 719.043 1109.32C696.547 1141.01 672.836 1171.08 642.444 1194.98C634.418 1201.27 625.752 1207.02 616.63 1212.12C572.666 1236.71 517.663 1246.09 473.747 1224.41" stroke="url(#paint26_linear_234_5884)" stroke-width="2.32665" stroke-miterlimit="10"/>
<path d="M1820.42 201.75C1728.64 173.74 1638.27 237.845 1596.82 323.02C1555.37 408.194 1550.34 510.267 1540.15 608.243C1529.96 706.219 1511.51 808.151 1450.32 877.434C1402.02 932.134 1331.29 960.365 1258.73 967.757C1186.19 975.145 1111.45 963.175 1038.21 946.287C983.883 933.755 927.127 918.49 875.642 933.296C818.682 949.673 778.596 1000.07 747.073 1052.04C715.549 1104.01 688.506 1160.91 644.349 1200.75C600.191 1240.58 532.36 1259.46 478.08 1225.5" stroke="url(#paint27_linear_234_5884)" stroke-width="2.32665" stroke-miterlimit="10"/>
</g>
<path style="mix-blend-mode:color-dodge" d="M1501.49 1412.43C1718.95 1372.17 1853.65 1154.35 1802.36 925.918C1751.06 697.486 1533.19 544.941 1315.73 585.199C1098.26 625.458 963.556 843.274 1014.85 1071.71C1066.15 1300.14 1284.02 1452.68 1501.49 1412.43Z" fill="url(#paint28_radial_234_5884)"/>
<path style="mix-blend-mode:color-dodge" d="M442.558 932.296C721.402 880.675 894.129 601.378 828.354 308.469C762.579 15.5596 483.21 -180.043 204.365 -128.421C-74.4792 -76.7998 -247.206 202.497 -181.431 495.406C-115.656 788.315 163.713 983.917 442.558 932.296Z" fill="url(#paint29_radial_234_5884)"/>
<path style="mix-blend-mode:color-dodge" d="M1199.91 528.629C1295.87 380.986 1247.91 177.436 1092.77 73.9865C937.638 -29.4626 734.081 6.36359 638.116 154.007C542.151 301.65 590.117 505.2 745.252 608.649C900.386 712.098 1103.94 676.272 1199.91 528.629Z" fill="url(#paint30_radial_234_5884)"/>
<path style="mix-blend-mode:color-dodge" d="M1890.92 266.854C1986.88 119.211 1938.92 -84.3391 1783.78 -187.788C1628.65 -291.237 1425.09 -255.411 1329.12 -107.768C1233.16 39.8749 1281.12 243.425 1436.26 346.874C1591.39 450.324 1794.95 414.497 1890.92 266.854Z" fill="url(#paint31_radial_234_5884)"/>
<path style="mix-blend-mode:color-dodge" d="M727.524 1393.65C796.955 1286.83 762.251 1139.57 650.012 1064.72C537.773 989.876 390.501 1015.8 321.07 1122.62C251.64 1229.43 286.343 1376.7 398.582 1451.55C510.822 1526.39 658.094 1500.47 727.524 1393.65Z" fill="url(#paint32_radial_234_5884)"/>
<path style="mix-blend-mode:color-dodge" d="M1376.67 729.925C1431.72 719.733 1465.82 664.591 1452.83 606.762C1439.85 548.932 1384.69 510.314 1329.64 520.506C1274.59 530.697 1240.48 585.84 1253.47 643.669C1266.46 701.499 1321.61 740.117 1376.67 729.925Z" fill="url(#paint33_radial_234_5884)"/>
<g style="mix-blend-mode:screen">
<path d="M574.289 1334.5C715.767 1284.9 838.303 1186.01 920.169 1055.31C980.413 959.17 1023.14 842.131 1116.83 783.965C1187.78 739.952 1276.89 737.501 1362.24 742.669C1447.59 747.862 1534.8 759.474 1616.28 739.968C1748.2 708.362 1851.93 589.743 1873.47 445.89" stroke="url(#paint34_linear_234_5884)" stroke-opacity="0.5" stroke-width="2.32665" stroke-miterlimit="10"/>
<path d="M1871.42 443.201C1858.36 511.753 1827.11 576.766 1784.05 628.628C1740.89 680.583 1685.32 718.627 1623.03 737.622C1545.32 761.319 1460.67 757.021 1376.09 756.528C1332.76 756.263 1288.14 757.576 1245.18 764.656C1204.35 771.407 1165.03 783.414 1129.7 804.491C1054.56 849.3 1008.61 927.062 961.118 1001.94C948.056 1022.49 934.87 1042.82 920.941 1062.25C885.305 1111.9 843.353 1156.66 796.596 1196.32C731.445 1251.58 656.798 1297.42 579.812 1331.17C575.934 1332.42 572.067 1333.62 568.143 1334.78" stroke="url(#paint35_linear_234_5884)" stroke-width="2.32665" stroke-miterlimit="10"/>
<path d="M1869.35 440.493C1853.97 505.713 1822.73 570.241 1781.66 622.383C1740.51 674.618 1688.26 713.139 1629.78 735.251C1555.77 763.205 1473.72 766.158 1389.94 770.361C1347.01 772.496 1302.52 775.747 1259.39 784.002C1218.4 791.851 1178.67 804.313 1142.57 824.991C1065.83 868.962 1016.06 942.641 964.908 1012.8C950.843 1032.05 936.626 1051.05 921.694 1069.19C883.591 1115.56 839.542 1157.34 791.091 1195.34C723.601 1248.26 647.211 1294.71 572.424 1332.58C568.969 1333.45 565.486 1334.3 562.014 1335.09" stroke="url(#paint36_linear_234_5884)" stroke-width="2.32665" stroke-miterlimit="10"/>
<path d="M1867.28 437.808C1849.59 499.721 1818.34 563.714 1779.25 616.139C1740.07 668.658 1691.14 707.787 1636.5 732.881C1566.1 765.209 1486.76 775.32 1403.76 784.171C1361.22 788.705 1316.88 793.89 1273.56 803.324C1232.41 812.271 1192.28 825.187 1155.41 845.467C1077.06 888.604 1023.48 958.171 968.685 1023.6C953.595 1041.56 938.364 1059.22 922.451 1076.05C881.88 1119.14 835.734 1157.93 785.608 1194.24C715.755 1244.83 637.645 1291.89 565.051 1333.85C562.008 1334.39 558.949 1334.86 555.878 1335.28" stroke="url(#paint37_linear_234_5884)" stroke-width="2.32665" stroke-miterlimit="10"/>
<path d="M1865.2 435.119C1845.2 493.721 1813.96 557.172 1776.86 609.903C1739.69 662.724 1694 702.546 1643.24 730.488C1576.37 767.304 1499.8 784.431 1417.6 797.978C1375.49 804.881 1331.26 812.056 1287.77 822.641C1246.46 832.71 1205.9 846.034 1168.29 865.935C1088.32 908.261 1030.92 973.716 972.475 1034.39C956.36 1051.06 940.115 1067.36 923.228 1082.92C880.19 1122.73 831.948 1158.52 780.13 1193.17C707.939 1241.42 628.087 1289.1 557.688 1335.15C555.069 1335.31 552.416 1335.43 549.758 1335.52" stroke="url(#paint38_linear_234_5884)" stroke-width="2.32665" stroke-miterlimit="10"/>
<path d="M1863.1 432.411C1840.79 487.703 1809.55 550.641 1774.42 603.653C1739.23 656.754 1696.79 697.446 1649.94 728.104C1586.54 769.596 1512.83 793.545 1431.4 811.766C1389.68 821.067 1345.61 830.176 1301.93 841.939C1260.46 853.106 1219.49 866.883 1181.12 886.409C1099.56 927.895 1038.34 989.239 976.228 1045.22C959.089 1060.59 941.83 1075.54 923.969 1089.82C878.458 1126.32 828.126 1159.15 774.616 1192.14C700.064 1238.06 618.495 1286.34 550.289 1336.48C548.071 1336.26 545.848 1336.02 543.597 1335.76" stroke="url(#paint39_linear_234_5884)" stroke-width="2.32665" stroke-miterlimit="10"/>
<path d="M1861.02 429.722C1836.4 481.704 1805.18 544.1 1772.03 597.393C1738.83 650.772 1699.67 692.483 1656.68 725.711C1596.74 772.032 1525.88 802.653 1445.25 825.568C1403.95 837.263 1359.99 848.312 1316.14 861.25C1274.51 873.514 1233.13 887.744 1193.99 906.871C1110.82 947.521 1045.79 1004.75 980.042 1056C961.878 1070.08 943.583 1083.69 924.77 1096.68C876.792 1129.9 824.364 1159.74 769.157 1191.04C692.267 1234.63 608.956 1283.52 542.945 1337.75C541.134 1337.18 539.34 1336.58 537.512 1335.94" stroke="url(#paint40_linear_234_5884)" stroke-width="2.32665" stroke-miterlimit="10"/>
<path d="M1858.92 427.015C1831.98 475.662 1800.75 537.545 1769.59 591.144C1738.37 644.803 1702.54 687.701 1663.37 723.327C1606.92 774.676 1538.89 811.793 1459.03 839.38C1418.13 853.473 1374.3 866.483 1330.28 880.595C1288.49 893.956 1246.68 908.643 1206.8 927.366C1122.03 967.205 1053.19 1020.32 983.777 1066.85C964.582 1079.6 945.279 1091.89 925.464 1103.59C875.019 1133.53 820.502 1160.4 763.62 1190.01C684.37 1231.26 599.34 1280.77 535.528 1339.1C534.147 1338.18 532.754 1337.2 531.333 1336.21" stroke="url(#paint41_linear_234_5884)" stroke-width="2.32665" stroke-miterlimit="10"/>
<path d="M1856.84 424.325C1827.6 469.665 1796.37 531.035 1767.2 584.911C1737.97 638.851 1705.52 683.079 1670.12 720.959C1617.25 777.548 1551.96 820.919 1472.87 853.178C1432.4 869.664 1388.69 884.611 1344.49 899.901C1302.54 914.383 1260.32 929.475 1219.68 947.823C1133.29 986.827 1060.65 1035.83 987.569 1077.64C967.372 1089.09 947.033 1100.04 926.244 1110.45C873.333 1137.12 816.72 1161 758.14 1188.93C676.53 1227.84 589.782 1277.96 528.164 1340.38C527.183 1339.08 526.203 1337.77 525.211 1336.42" stroke="url(#paint42_linear_234_5884)" stroke-width="2.32665" stroke-miterlimit="10"/>
<path d="M1854.75 421.641C1823.19 463.672 1791.97 524.5 1764.77 578.661C1737.53 632.879 1708.55 678.574 1676.82 718.574C1627.66 780.557 1564.97 830.03 1486.67 866.981C1446.6 885.864 1403.02 902.747 1358.65 919.211C1316.54 934.79 1273.92 950.334 1232.5 968.283C1144.52 1006.45 1068.05 1051.37 991.343 1088.45C970.122 1098.61 948.77 1108.21 927.006 1117.34C871.623 1140.7 812.898 1161.63 752.649 1187.89C668.701 1224.47 580.219 1275.22 520.788 1341.7C520.237 1340.04 519.657 1338.37 519.095 1336.66" stroke="url(#paint43_linear_234_5884)" stroke-width="2.32665" stroke-miterlimit="10"/>
<path d="M1852.66 418.929C1818.79 457.653 1787.58 517.971 1762.37 572.41C1737.11 626.911 1711.73 674.153 1683.55 716.192C1638.26 783.746 1578.01 839.147 1500.5 880.766C1460.85 902.042 1417.41 920.885 1372.84 938.504C1330.57 955.18 1287.54 971.177 1245.36 988.752C1155.77 1026.08 1075.49 1066.9 995.122 1099.25C972.876 1108.12 950.487 1116.37 927.772 1124.23C869.922 1144.31 809.101 1162.25 747.154 1186.83C660.845 1221.08 570.643 1272.44 513.405 1343C513.261 1340.99 513.105 1338.93 512.949 1336.88" stroke="url(#paint44_linear_234_5884)" stroke-width="2.32665" stroke-miterlimit="10"/>
<path d="M1850.56 416.244C1814.38 451.663 1783.15 511.446 1759.93 566.193C1736.67 620.973 1714.99 669.873 1690.24 713.845C1649.03 787.086 1591 848.3 1514.3 894.612C1475.03 918.261 1431.73 939.065 1386.99 957.858C1344.57 975.656 1301.1 992.086 1258.18 1009.26C1166.97 1045.78 1082.89 1082.49 998.858 1110.12C975.588 1117.69 952.185 1124.6 928.467 1131.16C868.15 1147.96 805.232 1162.92 741.616 1185.83C652.968 1217.75 561.024 1269.72 505.978 1344.38C506.257 1341.98 506.514 1339.6 506.759 1337.16" stroke="url(#paint45_linear_234_5884)" stroke-width="2.32665" stroke-miterlimit="10"/>
<path d="M1848.48 413.532C1809.98 445.62 1778.78 504.89 1757.53 559.92C1736.24 614.984 1718.4 665.542 1696.97 711.443C1660.05 790.459 1604.06 857.416 1528.13 908.401C1489.28 934.443 1446.08 957.187 1401.18 977.155C1358.6 996.05 1314.72 1012.91 1271.03 1029.71C1178.23 1065.39 1090.33 1097.99 1002.65 1120.91C978.354 1127.18 953.937 1132.75 929.245 1138.03C866.461 1151.55 801.447 1163.52 736.139 1184.77C645.129 1214.36 551.465 1266.94 498.618 1345.71C499.304 1342.97 499.984 1340.2 500.664 1337.43" stroke="url(#paint46_linear_234_5884)" stroke-width="2.32665" stroke-miterlimit="10"/>
<path d="M1846.38 410.848C1805.57 439.631 1774.36 498.39 1755.09 553.705C1735.78 609.052 1721.9 661.297 1703.66 709.074C1671.27 793.925 1617.05 866.546 1541.91 922.199C1503.46 950.638 1460.42 975.34 1415.32 996.461C1372.57 1016.45 1328.29 1033.77 1283.84 1050.17C1189.42 1085.02 1097.7 1113.54 1006.37 1131.73C981.054 1136.71 955.624 1140.93 929.957 1144.93C864.7 1155.16 797.596 1164.16 730.589 1183.73C637.241 1210.98 541.835 1264.18 491.18 1347.04C492.272 1343.94 493.376 1340.79 494.462 1337.67" stroke="url(#paint47_linear_234_5884)" stroke-width="2.32665" stroke-miterlimit="10"/>
<path d="M1844.3 408.159C1801.18 433.636 1769.98 491.857 1752.7 547.48C1735.39 603.106 1725.55 656.998 1710.4 706.718C1682.76 797.363 1630.1 875.688 1555.75 936.033C1517.72 966.865 1474.78 993.507 1429.5 1015.81C1386.59 1036.92 1341.9 1054.66 1296.68 1070.69C1200.66 1104.73 1105.12 1129.12 1010.14 1142.59C983.79 1146.28 957.346 1149.15 930.705 1151.87C862.981 1158.82 793.78 1164.84 725.104 1182.74C629.395 1207.67 532.269 1261.48 483.829 1348.42C485.345 1344.94 486.838 1341.47 488.348 1337.97" stroke="url(#paint48_linear_234_5884)" stroke-width="2.32665" stroke-miterlimit="10"/>
<path d="M1842.19 405.451C1796.76 427.624 1765.56 485.311 1750.25 541.217C1734.92 597.151 1729.23 652.621 1717.08 704.325C1694.44 800.749 1643.11 884.789 1569.52 949.806C1531.9 983.035 1489.09 1011.64 1443.64 1035.09C1400.57 1057.3 1355.44 1075.5 1309.48 1091.12C1211.87 1124.33 1112.51 1144.63 1013.88 1153.39C986.533 1155.78 959.035 1157.33 931.436 1158.75C861.245 1162.42 789.954 1165.48 719.575 1181.67C621.504 1204.27 522.658 1258.69 476.41 1349.71C478.333 1345.89 480.249 1342.03 482.166 1338.18" stroke="url(#paint49_linear_234_5884)" stroke-width="2.32665" stroke-miterlimit="10"/>
<path d="M1840.11 402.762C1792.37 421.63 1761.17 478.807 1747.86 534.992C1734.53 591.206 1733.04 648.218 1723.82 701.971C1706.3 804.072 1656.16 893.957 1583.34 963.645C1546.14 999.267 1503.46 1029.81 1457.81 1054.43C1414.6 1077.74 1369.05 1096.37 1322.32 1111.62C1223.09 1143.99 1119.94 1160.19 1017.64 1164.23C989.264 1165.32 960.753 1165.53 932.152 1165.65C859.494 1166.05 786.085 1166.12 714.035 1180.65C613.625 1200.92 513.037 1255.95 468.981 1351.06C471.327 1346.85 473.657 1342.67 476.003 1338.47" stroke="url(#paint50_linear_234_5884)" stroke-width="2.32665" stroke-miterlimit="10"/>
<path d="M1838.01 400.055C1787.95 415.593 1756.77 472.257 1745.42 528.754C1734.07 585.251 1736.86 643.739 1730.51 699.602C1718.26 807.279 1669.15 903.084 1597.13 977.463C1560.32 1015.46 1517.77 1047.96 1471.96 1073.76C1428.59 1098.18 1382.62 1117.25 1335.15 1132.1C1234.31 1163.66 1127.33 1175.75 1021.39 1175.06C991.994 1174.87 962.469 1173.73 932.894 1172.57C857.763 1169.67 782.263 1166.78 708.516 1179.63C605.745 1197.57 503.437 1253.21 461.58 1352.43C464.332 1347.87 467.085 1343.31 469.838 1338.75" stroke="url(#paint51_linear_234_5884)" stroke-width="2.32665" stroke-miterlimit="10"/>
<path d="M1835.91 397.371C1783.54 409.605 1752.35 465.758 1743 522.511C1733.62 579.292 1740.72 639.151 1737.22 697.229C1726.85 868.182 1622.13 1013.31 1486.12 1093.06C1350.11 1172.8 1186.33 1193.82 1025.13 1185.86C917.412 1180.55 808.123 1162.98 703.013 1178.58C597.903 1194.18 493.86 1250.46 454.188 1353.75C457.348 1348.83 460.524 1343.89 463.683 1338.98" stroke="url(#paint52_linear_234_5884)" stroke-width="2.32665" stroke-miterlimit="10"/>
</g>
<g style="mix-blend-mode:screen" opacity="0.17">
<path d="M961.69 1484C910.568 1433.07 875.923 1363.62 866.098 1292.43C856.175 1220.45 870.581 1114.04 926.415 1071.11C988.212 1023.61 1080.19 1043.03 1139.64 990.704C1194.45 942.495 1195.81 852.423 1187.56 773.12C1179.31 693.817 1166.66 607.519 1203.96 542.779C1233.54 491.44 1289.09 464.726 1344.36 447.856C1399.63 430.987 1458.11 421.126 1508.04 392.454C1620.17 328.119 1666.32 164.48 1609.79 31.7341" stroke="url(#paint53_linear_234_5884)" stroke-width="2.44298" stroke-miterlimit="10"/>
<path d="M917.301 1482.6C863.957 1430.8 828.455 1358.25 820.457 1285.01C812.356 1211.05 831.566 1107.12 889.811 1065.56C951.755 1021.38 1041.08 1039.66 1100.64 991.548C1155.88 947.257 1161.56 863.455 1157.56 787.036C1153.51 709.767 1144.16 624.424 1178 557.578C1210.22 493.961 1274.25 455.884 1341.62 437.581C1397.7 422.332 1456.53 413.127 1507.13 385.418C1615.89 325.86 1662.71 171.435 1612.32 44.2811" stroke="url(#paint54_linear_234_5884)" stroke-width="2.44298" stroke-miterlimit="10"/>
<path d="M872.852 1481.21C817.261 1428.54 780.939 1352.84 774.776 1277.53C768.505 1201.58 792.489 1100.13 853.183 1060C915.153 1019.03 1001.79 1036.05 1061.57 992.385C1117.13 951.821 1127.31 874.449 1127.53 800.979C1127.74 725.691 1120.95 640.794 1152.05 572.394C1186.73 496.146 1259.34 446.803 1338.95 427.219C1395.71 413.272 1455 405.024 1506.29 378.276C1611.56 323.401 1659.15 178.319 1614.92 56.7982" stroke="url(#paint55_linear_234_5884)" stroke-width="2.44298" stroke-miterlimit="10"/>
<path d="M828.357 1479.84C770.536 1426.3 733.379 1347.45 729.037 1270.08C724.604 1192.14 753.297 1093.1 816.542 1054.42C878.438 1016.57 962.56 1032.56 1022.47 993.234C1078.41 956.519 1093.1 885.471 1097.46 814.972C1102.03 741.631 1097.29 656.851 1126.08 587.254C1162.98 498.078 1244.39 437.524 1336.36 416.835C1393.69 403.942 1453.53 396.886 1505.51 371.148C1607.18 320.835 1655.62 185.278 1617.59 69.3509" stroke="url(#paint56_linear_234_5884)" stroke-width="2.44298" stroke-miterlimit="10"/>
<path d="M783.781 1478.45C723.733 1424.06 685.73 1342.01 683.222 1262.59C680.629 1182.62 713.97 1085.97 779.83 1048.81C841.579 1013.99 923.244 1029.06 983.24 994.061C1039.58 961.202 1058.85 896.438 1067.32 828.975C1076.3 757.53 1073.25 672.755 1100.05 602.117C1138.89 499.773 1229.35 427.976 1333.78 406.363C1391.65 394.385 1452 388.627 1504.75 363.937C1602.71 318.092 1652.09 192.169 1620.3 81.8972" stroke="url(#paint57_linear_234_5884)" stroke-width="2.44298" stroke-miterlimit="10"/>
<path d="M739.186 1477.06C676.901 1421.79 638.063 1336.57 637.391 1255.07C636.672 1173.07 674.575 1078.68 743.155 1043.17C804.658 1011.3 883.965 1025.55 944.045 994.887C1000.79 965.919 1024.72 907.446 1037.24 843.015C1050.76 773.472 1049.07 688.536 1074.09 617.009C1114.58 501.277 1214.37 418.202 1331.34 395.803C1389.71 384.623 1450.59 380.239 1504.11 356.623C1598.26 315.124 1648.63 199.024 1623.12 94.3706" stroke="url(#paint58_linear_234_5884)" stroke-width="2.44298" stroke-miterlimit="10"/>
<path d="M694.546 1475.67C630.022 1419.51 590.343 1331.09 591.514 1247.49C592.654 1163.46 635.115 1071.26 706.451 1037.46C767.658 1008.44 844.67 1022.01 904.796 995.654C961.965 970.608 990.685 918.426 1007.14 857.058C1025.3 789.406 1024.7 704.252 1048.12 631.922C1089.96 502.629 1199.36 408.163 1328.95 385.189C1387.81 374.738 1449.18 371.739 1503.51 349.291C1593.74 311.993 1645.21 205.876 1625.97 106.912" stroke="url(#paint59_linear_234_5884)" stroke-width="2.44298" stroke-miterlimit="10"/>
<path d="M649.864 1474.28C583.105 1417.25 542.564 1325.62 545.627 1239.9C548.626 1153.81 595.613 1063.71 669.737 1031.74C730.574 1005.5 805.321 1018.47 865.511 996.435C923.109 975.35 956.696 929.467 977.015 871.134C999.92 805.386 1000.22 719.973 1022.14 646.839C1065 503.817 1184.32 397.89 1326.61 374.479C1385.92 364.716 1447.78 363.104 1502.96 341.847C1589.18 308.652 1641.82 212.686 1628.88 119.375" stroke="url(#paint60_linear_234_5884)" stroke-width="2.44298" stroke-miterlimit="10"/>
<path d="M605.146 1472.89C536.143 1414.97 494.763 1320.1 499.685 1232.28C504.555 1144.15 556 1056.02 633.015 1026.01C693.449 1002.45 765.974 1014.95 826.194 997.231C884.247 980.139 922.768 940.618 946.86 885.272C974.637 821.513 975.611 735.701 996.139 661.814C1039.72 504.886 1169.25 387.382 1324.29 363.699C1384.05 354.575 1446.36 354.314 1502.41 334.371C1584.57 305.15 1638.41 219.486 1631.8 131.894" stroke="url(#paint61_linear_234_5884)" stroke-width="2.44298" stroke-miterlimit="10"/>
<path d="M560.368 1471.51C489.12 1412.68 446.9 1314.56 453.681 1224.61C460.428 1134.42 516.306 1048.13 596.223 1020.21C656.23 999.256 726.572 1011.41 786.762 997.982C845.25 984.926 888.812 951.796 916.631 899.407C949.376 837.702 950.857 751.441 970.048 676.784C1014.03 505.823 1154.08 376.594 1321.94 352.832C1382.17 344.296 1444.88 345.348 1501.84 326.815C1579.83 301.422 1634.96 226.279 1634.7 144.376" stroke="url(#paint62_linear_234_5884)" stroke-width="2.44298" stroke-miterlimit="10"/>
<path d="M515.58 1470.12C442.085 1410.38 399.031 1309.02 407.677 1216.93C416.304 1124.67 476.565 1040.05 559.469 1014.39C618.999 995.961 687.175 1007.89 747.37 998.734C806.324 989.772 855 963.121 886.46 913.59C924.28 854.051 926.108 767.24 944.046 691.792C988.085 506.649 1139.01 365.563 1319.69 341.871C1380.36 333.93 1443.44 336.156 1501.36 319.153C1575.14 297.482 1631.58 232.992 1637.67 156.849" stroke="url(#paint63_linear_234_5884)" stroke-width="2.44298" stroke-miterlimit="10"/>
<path d="M470.756 1468.73C394.996 1408.11 351.12 1303.43 361.64 1209.21C372.148 1114.85 436.819 1031.8 522.698 1008.54C581.747 992.54 647.73 1004.37 707.943 999.474C767.344 994.649 821.178 974.545 856.271 927.809C899.251 870.555 901.304 783.061 918.034 706.831C961.828 507.346 1123.91 354.28 1317.5 330.846C1378.62 323.449 1442.03 326.762 1500.92 311.465C1570.46 293.382 1628.23 239.733 1640.7 169.34" stroke="url(#paint64_linear_234_5884)" stroke-width="2.44298" stroke-miterlimit="10"/>
<path d="M425.903 1467.34C347.893 1405.8 303.162 1297.85 315.599 1201.46C327.997 1104.99 397.042 1023.33 485.924 1002.67C544.495 989.062 608.277 1000.89 668.493 1000.23C728.322 999.582 787.372 986.142 826.081 942.114C874.261 887.272 876.445 798.978 892.028 721.949C935.269 508.035 1108.81 342.784 1315.37 319.779C1376.93 312.929 1440.61 317.165 1500.54 303.721C1565.79 289.095 1624.92 246.495 1643.8 181.873" stroke="url(#paint65_linear_234_5884)" stroke-opacity="0.5" stroke-width="2.44298" stroke-miterlimit="10"/>
<path d="M1646.83 194.35C1621.54 253.181 1561.08 284.557 1500.1 295.868C1439.12 307.155 1375.19 302.237 1313.2 308.563C1093.65 331.014 908.329 508.584 865.963 737.063C851.514 814.926 849.265 904.114 795.825 956.42C753.536 997.824 689.228 1004.53 628.99 1000.95C568.751 997.362 507.225 985.431 449.113 996.741C357.187 1014.63 283.807 1095.1 269.492 1193.67C255.178 1292.24 300.747 1403.51 381.009 1465.98" stroke="url(#paint66_linear_234_5884)" stroke-width="2.44298" stroke-miterlimit="10"/>
<path d="M380.814 1456.11C350.98 1428.74 328.35 1383.09 312.718 1332.11C297.018 1280.94 289.048 1224.51 296.05 1171.44C308.676 1075.74 377.263 996.904 463.194 976.063C517.531 962.835 575.4 971.59 632.577 972.272C690.287 972.961 752.497 964.218 794.757 924.517C818.37 902.341 832.826 873.675 843.109 842.408C856.178 803.036 862.684 759.552 872.708 719.51C884.529 671.963 903.101 627.092 927.212 585.811C960.431 528.928 1004.41 478.854 1055.32 436.034C1111.62 388.663 1175.63 350.464 1244.15 327.761C1268.12 319.828 1292.69 313.745 1317.74 309.758C1364.16 302.354 1411.78 301.478 1458.9 295.126C1471.5 293.445 1484.07 291.368 1496.57 288.678C1555.84 275.89 1615.65 245.868 1642.59 193.367" stroke="url(#paint67_linear_234_5884)" stroke-width="2.44298" stroke-miterlimit="10"/>
<path d="M380.563 1446.33C360.956 1422.74 347.057 1374.79 335.445 1320.62C323.748 1266.3 315.715 1206.02 322.524 1149.26C333.635 1056.48 397.233 979.195 477.186 955.449C527.757 940.331 582.006 945.855 636.086 943.671C691.308 941.437 751.363 930.693 793.639 892.684C817.196 871.478 832.397 844.523 843.978 815.447C858.575 778.755 867.409 738.69 879.416 701.977C893.528 658.383 913.853 617.532 939.241 580.128C974.233 528.544 1019.28 483.439 1070.02 442.495C1126.15 397.227 1187.67 357.675 1252.6 332.278C1275.32 323.39 1298.54 316.194 1322.23 310.917C1366.14 301.096 1411.27 297.35 1456.6 289.134C1468.7 286.94 1480.85 284.461 1492.99 281.458C1550.55 267.194 1609.74 238.52 1638.33 192.316" stroke="url(#paint68_linear_234_5884)" stroke-width="2.41972" stroke-miterlimit="10"/>
<path d="M380.084 1436.91C370.674 1417.1 365.543 1366.82 357.953 1309.48C350.278 1251.98 342.21 1187.87 348.775 1127.38C358.519 1037.51 417.024 961.765 491.002 935.063C537.811 918.026 588.487 920.293 639.469 915.295C692.23 910.111 750.146 897.389 792.4 861.069C815.905 840.828 831.903 815.591 844.712 788.685C860.91 754.675 872.084 718.064 885.991 684.606C902.473 644.987 924.48 608.132 951.139 574.544C987.891 528.271 1034.04 488.063 1084.61 449.036C1140.55 405.837 1199.6 364.948 1260.99 336.844C1282.47 327.023 1304.32 318.664 1326.67 312.12C1368.09 299.884 1410.74 293.292 1454.27 283.163C1465.88 280.478 1477.61 277.574 1489.37 274.261C1545.25 258.491 1603.81 231.159 1634.05 191.285" stroke="url(#paint69_linear_234_5884)" stroke-width="2.41972" stroke-miterlimit="10"/>
<path d="M379.297 1427.87C380.103 1411.83 383.717 1359.21 380.125 1298.69C376.477 1238.02 368.415 1170.05 374.689 1105.79C383.173 1018.86 436.462 944.549 504.509 914.901C547.588 895.938 594.697 894.924 642.547 887.119C692.89 878.928 748.646 864.279 790.886 829.636C814.322 810.356 831.141 786.826 845.186 762.105C862.984 730.741 876.428 697.56 892.321 667.406C911.105 631.738 934.864 598.854 962.787 569.122C1001.3 528.119 1048.56 492.847 1098.97 455.672C1154.74 414.552 1211.35 372.284 1269.2 341.492C1289.44 330.735 1309.96 321.231 1330.95 313.399C1369.88 298.742 1410.07 289.275 1451.8 277.283C1462.93 274.106 1474.25 270.771 1485.63 267.176C1539.82 249.922 1597.77 223.921 1629.67 190.337" stroke="url(#paint70_linear_234_5884)" stroke-width="2.39645" stroke-miterlimit="10"/>
<path d="M378.501 1418.88C389.497 1406.58 401.886 1351.64 402.292 1287.93C402.642 1224.08 394.642 1152.27 400.576 1084.24C407.916 1000.25 455.958 927.524 517.974 894.797C557.345 874.001 600.869 869.533 645.589 859.02C693.548 847.765 747.111 831.245 789.339 798.277C812.728 779.955 830.365 758.107 845.623 735.573C865.049 706.875 880.758 677.1 898.61 650.23C919.673 618.515 945.192 589.626 974.414 563.695C1014.72 527.984 1063.06 497.603 1113.31 462.302C1168.93 423.232 1223.08 379.636 1277.36 346.11C1296.35 334.42 1315.54 323.771 1335.18 314.645C1371.63 297.591 1409.33 285.227 1449.31 271.338C1459.95 267.67 1470.85 263.932 1481.87 259.998C1534.4 241.231 1591.73 216.563 1625.26 189.275" stroke="url(#paint71_linear_234_5884)" stroke-width="2.39645" stroke-miterlimit="10"/>
<path d="M377.68 1409.89C398.897 1401.37 420.04 1344.11 424.44 1277.18C428.817 1210.16 420.918 1134.49 426.466 1062.68C432.74 981.675 475.422 910.348 531.456 874.657C567.08 851.96 607.064 844.029 648.67 830.879C694.228 816.487 745.593 798.171 787.831 766.875C811.173 749.51 829.639 729.393 846.106 709.024C867.138 682.996 885.106 656.603 904.945 633.038C928.312 605.274 955.585 580.357 986.094 558.28C1028.17 527.84 1077.61 502.396 1127.71 468.946C1183.16 431.955 1234.85 386.981 1285.61 350.76C1303.36 338.132 1321.19 326.341 1339.49 315.922C1373.46 296.446 1408.68 281.208 1446.88 265.449C1457.04 261.29 1467.52 257.124 1478.17 252.904C1529.01 232.652 1585.73 209.313 1620.93 188.319" stroke="url(#paint72_linear_234_5884)" stroke-width="2.39645" stroke-miterlimit="10"/>
<path d="M376.861 1400.91C408.277 1396.15 438.192 1336.55 446.608 1266.4C454.986 1196.19 447.271 1116.72 452.378 1041.09C457.657 963.078 494.884 893.147 544.958 854.487C576.851 829.86 613.275 818.393 651.745 802.71C694.906 785.103 744.091 765.063 786.316 735.444C809.612 719.037 828.9 700.626 846.576 682.423C869.259 659.058 889.448 636.08 911.276 615.821C936.923 592.013 965.978 571.089 997.742 552.823C1041.58 527.657 1092.12 507.128 1142.11 475.573C1197.38 440.637 1246.63 394.305 1293.84 355.369C1310.35 341.78 1326.84 328.87 1343.79 317.157C1375.25 295.262 1408.02 277.145 1444.43 259.493C1454.12 254.838 1464.16 250.249 1474.44 245.717C1523.58 223.955 1579.71 201.947 1616.57 187.248" stroke="url(#paint73_linear_234_5884)" stroke-width="2.37318" stroke-miterlimit="10"/>
<path d="M376.039 1391.92C417.68 1390.94 456.345 1328.99 468.763 1255.65C481.163 1182.24 473.677 1098.96 478.276 1019.53C482.628 944.499 514.326 875.953 558.449 834.372C586.609 807.815 619.44 792.767 654.829 774.59C695.547 753.676 742.595 732.003 784.808 704.061C808.056 688.613 828.196 671.93 847.053 655.873C871.37 635.2 893.769 615.591 917.607 598.636C945.529 578.76 976.367 561.832 1009.42 547.422C1055.05 527.551 1106.67 511.942 1156.5 482.24C1211.63 449.381 1258.41 401.671 1302.07 360.019C1317.32 345.496 1332.5 331.436 1348.09 318.432C1377.06 294.114 1407.34 273.122 1441.98 253.6C1451.19 248.453 1460.8 243.436 1470.74 238.614C1518.22 215.362 1573.72 194.689 1612.24 186.287" stroke="url(#paint74_linear_234_5884)" stroke-width="2.37318" stroke-miterlimit="10"/>
<path d="M374.595 1373.81C436.655 1380.37 492.818 1313.76 513.279 1234.05C533.708 1154.3 526.941 1063.45 530.28 976.371C532.903 907.381 553.381 841.553 585.588 794.117C606.233 763.715 631.758 741.227 661.092 718.348C696.76 690.551 739.66 665.897 781.868 641.339C805.018 627.812 826.834 614.594 848.1 602.85C875.732 587.586 902.542 574.696 930.357 564.385C962.792 552.339 997.207 543.478 1032.84 536.735C1081.99 527.423 1135.82 521.676 1185.33 495.712C1240.1 466.999 1281.97 416.568 1318.54 369.52C1331.31 353.125 1343.77 336.785 1356.67 321.195C1380.66 292.06 1405.99 265.324 1437.07 242.014C1445.3 235.861 1454.08 230.039 1463.28 224.568C1507.37 198.326 1561.64 180.325 1603.47 184.523" stroke="url(#paint75_linear_234_5884)" stroke-width="2.34992" stroke-miterlimit="10"/>
<path d="M373.95 1364.72C446.203 1375.06 511.131 1306.12 535.591 1223.24C560.039 1140.32 553.792 1045.73 556.333 954.819C558.172 888.858 572.839 824.332 599.222 774.063C616.048 741.678 637.862 715.434 664.299 690.284C697.289 658.901 738.274 632.906 780.484 610.029C803.562 597.468 826.253 586.003 848.69 576.385C877.958 563.842 906.963 554.277 936.79 547.298C971.49 539.165 1007.69 534.351 1044.57 531.423C1095.51 527.41 1150.4 526.563 1199.76 502.484C1254.38 475.855 1293.74 424.064 1326.78 374.333C1338.31 356.98 1349.45 339.521 1360.98 322.645C1382.48 291.095 1405.32 261.489 1434.61 236.291C1442.35 229.648 1450.7 223.4 1459.54 217.643C1501.95 189.895 1555.59 173.234 1599.07 183.73" stroke="url(#paint76_linear_234_5884)" stroke-width="2.34992" stroke-miterlimit="10"/>
<path d="M373.323 1355.62C455.788 1369.74 529.456 1298.47 557.907 1212.4C586.358 1126.33 580.735 1027.97 582.368 933.253C583.467 870.313 592.419 807.2 612.812 753.98C625.879 719.679 643.828 689.607 667.446 662.225C697.612 627.233 736.827 599.924 779.016 578.732C802.042 567.133 825.575 557.475 849.2 549.956C880.142 540.202 911.317 533.864 943.138 530.244C980.112 525.972 1018.06 525.236 1056.25 526.162C1108.94 527.428 1164.93 531.522 1214.13 509.328C1268.56 484.764 1305.47 431.632 1334.94 379.203C1345.21 360.922 1355.01 342.322 1365.19 324.157C1384.2 290.192 1404.58 257.716 1432.06 230.659C1439.32 223.526 1447.27 216.848 1455.71 210.786C1496.43 181.56 1549.45 166.236 1594.56 183.032" stroke="url(#paint77_linear_234_5884)" stroke-width="2.32665" stroke-miterlimit="10"/>
<path d="M372.708 1346.52C465.359 1364.4 547.787 1290.81 580.233 1201.58C612.702 1112.34 607.83 1010.26 608.439 911.734C609.042 813.18 617.338 709.797 670.655 634.217C712.757 574.575 779.375 538.789 849.765 523.555C920.154 508.321 994.549 512.096 1067.95 520.927C1122.4 527.47 1179.5 536.476 1228.54 516.166C1282.79 493.692 1317.25 439.195 1343.16 384.067C1369.07 328.94 1390.14 269.427 1429.58 225.003C1469.04 180.576 1533.7 154.448 1590.16 182.301" stroke="url(#paint78_linear_234_5884)" stroke-width="2.32665" stroke-miterlimit="10"/>
</g>
<g filter="url(#filter0_f_234_5884)">
<ellipse cx="154.602" cy="158.665" rx="154.602" ry="158.665" transform="matrix(1.00211 0.0266645 0.0303705 0.996962 1613.66 1259.36)" fill="url(#paint79_linear_234_5884)"/>
</g>
<g filter="url(#filter1_f_234_5884)">
<ellipse cx="202.137" cy="213.077" rx="202.137" ry="213.077" transform="matrix(1.00211 0.0266949 0.0303369 0.996963 281.664 1669.36)" fill="url(#paint80_linear_234_5884)"/>
</g>
</g>
<defs>
<filter id="filter0_f_234_5884" x="1355.41" y="1000.43" width="836.012" height="842.476" filterUnits="userSpaceOnUse" color-interpolation-filters="sRGB">
<feFlood flood-opacity="0" result="BackgroundImageFix"/>
<feBlend mode="normal" in="SourceGraphic" in2="BackgroundImageFix" result="shape"/>
<feGaussianBlur stdDeviation="131.5" result="effect1_foregroundBlur_234_5884"/>
</filter>
<filter id="filter1_f_234_5884" x="25.0234" y="1411.69" width="931.336" height="951" filterUnits="userSpaceOnUse" color-interpolation-filters="sRGB">
<feFlood flood-opacity="0" result="BackgroundImageFix"/>
<feBlend mode="normal" in="SourceGraphic" in2="BackgroundImageFix" result="shape"/>
<feGaussianBlur stdDeviation="131.5" result="effect1_foregroundBlur_234_5884"/>
</filter>
<radialGradient id="paint0_radial_234_5884" cx="0" cy="0" r="1" gradientTransform="matrix(405.255 -75.0233 95.5933 425.696 1800.16 485.79)" gradientUnits="userSpaceOnUse">
<stop stop-color="#3698FF"/>
<stop offset="1" stop-opacity="0.1"/>
</radialGradient>
<linearGradient id="paint1_linear_234_5884" x1="304.619" y1="783.418" x2="1404.37" y2="521.814" gradientUnits="userSpaceOnUse">
<stop stop-color="#FF87AB"/>
<stop offset="0.08" stop-color="#FF75A6"/>
<stop offset="0.37" stop-color="#FF3897"/>
<stop offset="0.5" stop-color="#FF2191"/>
<stop offset="0.57" stop-color="#F02195"/>
<stop offset="0.69" stop-color="#CA23A2"/>
<stop offset="0.86" stop-color="#8C25B5"/>
<stop offset="1" stop-color="#5528C8"/>
</linearGradient>
<linearGradient id="paint2_linear_234_5884" x1="306.488" y1="783.41" x2="1445.9" y2="512.322" gradientUnits="userSpaceOnUse">
<stop stop-color="#EF90AB"/>
<stop offset="0.04" stop-color="#EE86A9"/>
<stop offset="0.36" stop-color="#EE449B"/>
<stop offset="0.5" stop-color="#EE2B96"/>
<stop offset="0.57" stop-color="#DF2A9B"/>
<stop offset="0.7" stop-color="#B92AA8"/>
<stop offset="0.88" stop-color="#7B2ABD"/>
<stop offset="1" stop-color="#512ACC"/>
</linearGradient>
<linearGradient id="paint3_linear_234_5884" x1="308.125" y1="783.434" x2="1487.53" y2="502.818" gradientUnits="userSpaceOnUse">
<stop stop-color="#DE97AA"/>
<stop offset="0.34" stop-color="#DE509F"/>
<stop offset="0.5" stop-color="#DE349B"/>
<stop offset="0.58" stop-color="#CF33A0"/>
<stop offset="0.72" stop-color="#A931AE"/>
<stop offset="0.91" stop-color="#6B2EC4"/>
<stop offset="1" stop-color="#4C2DD0"/>
</linearGradient>
<linearGradient id="paint4_linear_234_5884" x1="309.517" y1="783.544" x2="1529.26" y2="493.354" gradientUnits="userSpaceOnUse">
<stop stop-color="#D0A1AB"/>
<stop offset="0.33" stop-color="#CD5DA4"/>
<stop offset="0.5" stop-color="#CD3EA1"/>
<stop offset="0.58" stop-color="#BE3CA6"/>
<stop offset="0.73" stop-color="#9838B5"/>
<stop offset="0.94" stop-color="#5A31CD"/>
<stop offset="1" stop-color="#482FD5"/>
</linearGradient>
<linearGradient id="paint5_linear_234_5884" x1="310.826" y1="783.707" x2="1571.06" y2="483.95" gradientUnits="userSpaceOnUse">
<stop stop-color="#C0A9AB"/>
<stop offset="0.31" stop-color="#BE6AA7"/>
<stop offset="0.5" stop-color="#BD48A6"/>
<stop offset="0.59" stop-color="#AE45AC"/>
<stop offset="0.75" stop-color="#883EBC"/>
<stop offset="0.98" stop-color="#4A33D6"/>
<stop offset="1" stop-color="#4432D9"/>
</linearGradient>
<linearGradient id="paint6_linear_234_5884" x1="312.116" y1="783.893" x2="1612.97" y2="474.581" gradientUnits="userSpaceOnUse">
<stop stop-color="#B0B2AB"/>
<stop offset="0.29" stop-color="#AD77AB"/>
<stop offset="0.5" stop-color="#AC51AB"/>
<stop offset="0.6" stop-color="#9D4DB1"/>
<stop offset="0.77" stop-color="#7742C3"/>
<stop offset="1" stop-color="#3F34DD"/>
</linearGradient>
<linearGradient id="paint7_linear_234_5884" x1="313.368" y1="784.131" x2="1654.92" y2="465.293" gradientUnits="userSpaceOnUse">
<stop stop-color="#A0BBAB"/>
<stop offset="0.26" stop-color="#9D87AD"/>
<stop offset="0.5" stop-color="#9B5BB0"/>
<stop offset="0.61" stop-color="#8C55B7"/>
<stop offset="0.8" stop-color="#6646CA"/>
<stop offset="1" stop-color="#3B36E1"/>
</linearGradient>
<linearGradient id="paint8_linear_234_5884" x1="314.645" y1="784.357" x2="1696.95" y2="456.031" gradientUnits="userSpaceOnUse">
<stop stop-color="#91C3AA"/>
<stop offset="0.22" stop-color="#8E98AF"/>
<stop offset="0.5" stop-color="#8B65B6"/>
<stop offset="0.62" stop-color="#7C5DBE"/>
<stop offset="0.84" stop-color="#5649D4"/>
<stop offset="1" stop-color="#3739E6"/>
</linearGradient>
<linearGradient id="paint9_linear_234_5884" x1="315.887" y1="784.637" x2="1739.05" y2="446.852" gradientUnits="userSpaceOnUse">
<stop stop-color="#81CCAA"/>
<stop offset="0.16" stop-color="#7EADAF"/>
<stop offset="0.5" stop-color="#7A6FBB"/>
<stop offset="0.64" stop-color="#6B64C4"/>
<stop offset="0.89" stop-color="#4548DD"/>
<stop offset="1" stop-color="#333BEA"/>
</linearGradient>
<linearGradient id="paint10_linear_234_5884" x1="317.138" y1="784.938" x2="1781.2" y2="437.742" gradientUnits="userSpaceOnUse">
<stop stop-color="#71D5AA"/>
<stop offset="0.08" stop-color="#6FC5AD"/>
<stop offset="0.5" stop-color="#6978C0"/>
<stop offset="0.66" stop-color="#5A69CB"/>
<stop offset="0.95" stop-color="#3443E8"/>
<stop offset="1" stop-color="#2E3DEE"/>
</linearGradient>
<linearGradient id="paint11_linear_234_5884" x1="318.377" y1="785.293" x2="1823.41" y2="428.728" gradientUnits="userSpaceOnUse">
<stop stop-color="#61DDAA"/>
<stop offset="0.5" stop-color="#5982C5"/>
<stop offset="0.64" stop-color="#4E73CE"/>
<stop offset="0.91" stop-color="#334DE8"/>
<stop offset="1" stop-color="#2A40F2"/>
</linearGradient>
<linearGradient id="paint12_linear_234_5884" x1="319.62" y1="785.647" x2="1865.69" y2="419.765" gradientUnits="userSpaceOnUse">
<stop stop-color="#52E6AA"/>
<stop offset="0.5" stop-color="#488CCB"/>
<stop offset="0.63" stop-color="#417DD3"/>
<stop offset="0.88" stop-color="#2F57EA"/>
<stop offset="1" stop-color="#2642F7"/>
</linearGradient>
<linearGradient id="paint13_linear_234_5884" x1="320.88" y1="786.051" x2="1908.04" y2="410.906" gradientUnits="userSpaceOnUse">
<stop stop-color="#FCA96E"/>
<stop offset="0.5" stop-color="#3895D0"/>
<stop offset="0.62" stop-color="#3386D7"/>
<stop offset="0.85" stop-color="#2860EC"/>
<stop offset="1" stop-color="#2145FB"/>
</linearGradient>
<linearGradient id="paint14_linear_234_5884" x1="322.138" y1="786.461" x2="1950.4" y2="402.122" gradientUnits="userSpaceOnUse">
<stop stop-color="#F5A572"/>
<stop offset="1" stop-color="#1D47FF"/>
</linearGradient>
<linearGradient id="paint15_linear_234_5884" x1="327.199" y1="791.547" x2="1926.67" y2="413.914" gradientUnits="userSpaceOnUse">
<stop stop-color="#FDAA6D"/>
<stop offset="1" stop-color="#2E47FC"/>
</linearGradient>
<linearGradient id="paint16_linear_234_5884" x1="332.31" y1="796.558" x2="1908.5" y2="424.362" gradientUnits="userSpaceOnUse">
<stop stop-color="#4CD7B3"/>
<stop offset="1" stop-color="#4047F9"/>
</linearGradient>
<linearGradient id="paint17_linear_234_5884" x1="337.445" y1="801.579" x2="1900.31" y2="432.529" gradientUnits="userSpaceOnUse">
<stop stop-color="#58C7B8"/>
<stop offset="1" stop-color="#5147F6"/>
</linearGradient>
<linearGradient id="paint18_linear_234_5884" x1="342.541" y1="806.143" x2="1898.98" y2="438.646" gradientUnits="userSpaceOnUse">
<stop stop-color="#65B7BD"/>
<stop offset="1" stop-color="#6347F2"/>
</linearGradient>
<linearGradient id="paint19_linear_234_5884" x1="347.636" y1="810.576" x2="1897.63" y2="444.638" gradientUnits="userSpaceOnUse">
<stop stop-color="#72A7C1"/>
<stop offset="1" stop-color="#7447EF"/>
</linearGradient>
<linearGradient id="paint20_linear_234_5884" x1="352.779" y1="815.231" x2="1896.36" y2="450.846" gradientUnits="userSpaceOnUse">
<stop stop-color="#7F97C6"/>
<stop offset="1" stop-color="#8547EC"/>
</linearGradient>
<linearGradient id="paint21_linear_234_5884" x1="357.946" y1="819.836" x2="1895.58" y2="456.891" gradientUnits="userSpaceOnUse">
<stop stop-color="#8B87CB"/>
<stop offset="1" stop-color="#9746E9"/>
</linearGradient>
<linearGradient id="paint22_linear_234_5884" x1="362.993" y1="824.356" x2="1894.82" y2="462.798" gradientUnits="userSpaceOnUse">
<stop stop-color="#9877D0"/>
<stop offset="1" stop-color="#A846E6"/>
</linearGradient>
<linearGradient id="paint23_linear_234_5884" x1="368.241" y1="830.291" x2="1894.18" y2="470.091" gradientUnits="userSpaceOnUse">
<stop stop-color="#A567D4"/>
<stop offset="1" stop-color="#B946E3"/>
</linearGradient>
<linearGradient id="paint24_linear_234_5884" x1="373.565" y1="836.415" x2="1893.51" y2="477.577" gradientUnits="userSpaceOnUse">
<stop stop-color="#B257D9"/>
<stop offset="1" stop-color="#CB46DF"/>
</linearGradient>
<linearGradient id="paint25_linear_234_5884" x1="378.915" y1="842.483" x2="1892.81" y2="485.012" gradientUnits="userSpaceOnUse">
<stop stop-color="#BE47DE"/>
<stop offset="1" stop-color="#DC46DC"/>
</linearGradient>
<linearGradient id="paint26_linear_234_5884" x1="384.278" y1="848.427" x2="1892.06" y2="492.335" gradientUnits="userSpaceOnUse">
<stop stop-color="#CB37E2"/>
<stop offset="1" stop-color="#EE46D9"/>
</linearGradient>
<linearGradient id="paint27_linear_234_5884" x1="389.655" y1="854.301" x2="1891.27" y2="499.599" gradientUnits="userSpaceOnUse">
<stop stop-color="#D827E7"/>
<stop offset="1" stop-color="#FF46D6"/>
</linearGradient>
<radialGradient id="paint28_radial_234_5884" cx="0" cy="0" r="1" gradientTransform="matrix(393.753 -72.8939 92.88 413.613 1408.61 998.812)" gradientUnits="userSpaceOnUse">
<stop stop-color="#4A47D9"/>
<stop offset="1" stop-opacity="0.1"/>
</radialGradient>
<radialGradient id="paint29_radial_234_5884" cx="0" cy="0" r="1" gradientTransform="matrix(504.893 -93.4688 119.096 530.359 323.462 401.937)" gradientUnits="userSpaceOnUse">
<stop stop-color="#4A47D9"/>
<stop offset="1" stop-opacity="0.1"/>
</radialGradient>
<radialGradient id="paint30_radial_234_5884" cx="0" cy="0" r="1" gradientTransform="matrix(321.491 -56.5828 75.7563 321.481 919.023 341.314)" gradientUnits="userSpaceOnUse">
<stop stop-color="#4745DC"/>
<stop offset="1" stop-opacity="0.1"/>
</radialGradient>
<radialGradient id="paint31_radial_234_5884" cx="0" cy="0" r="1" gradientTransform="matrix(321.491 -56.5828 75.7563 321.481 1610.01 79.5348)" gradientUnits="userSpaceOnUse">
<stop stop-color="#E0004E"/>
<stop offset="1" stop-opacity="0.1"/>
</radialGradient>
<radialGradient id="paint32_radial_234_5884" cx="0" cy="0" r="1" gradientTransform="matrix(232.597 -40.9373 54.8093 232.59 524.291 1258.13)" gradientUnits="userSpaceOnUse">
<stop stop-color="#FAA96E"/>
<stop offset="1" stop-opacity="0.1"/>
</radialGradient>
<radialGradient id="paint33_radial_234_5884" cx="0" cy="0" r="1" gradientTransform="matrix(99.6817 -18.4537 23.5134 104.71 1353.15 625.215)" gradientUnits="userSpaceOnUse">
<stop stop-color="#FDAA6D"/>
<stop offset="1" stop-opacity="0.1"/>
</radialGradient>
<linearGradient id="paint34_linear_234_5884" x1="516.109" y1="1207.04" x2="1928.02" y2="563.423" gradientUnits="userSpaceOnUse">
<stop stop-color="#1D4DFF"/>
<stop offset="1" stop-color="#FF2A89"/>
</linearGradient>
<linearGradient id="paint35_linear_234_5884" x1="510.349" y1="1208.24" x2="1926.77" y2="562.572" gradientUnits="userSpaceOnUse">
<stop stop-color="#2A51F3"/>
<stop offset="1" stop-color="#FD2987"/>
</linearGradient>
<linearGradient id="paint36_linear_234_5884" x1="504.05" y1="1208.25" x2="1924.97" y2="560.522" gradientUnits="userSpaceOnUse">
<stop stop-color="#3655E8"/>
<stop offset="1" stop-color="#FB2885"/>
</linearGradient>
<linearGradient id="paint37_linear_234_5884" x1="497.709" y1="1208.28" x2="1923.17" y2="558.468" gradientUnits="userSpaceOnUse">
<stop stop-color="#435ADC"/>
<stop offset="0.8" stop-color="#D33095"/>
<stop offset="1" stop-color="#F92683"/>
</linearGradient>
<linearGradient id="paint38_linear_234_5884" x1="491.341" y1="1208.27" x2="1921.31" y2="556.371" gradientUnits="userSpaceOnUse">
<stop stop-color="#4F5ED1"/>
<stop offset="0.65" stop-color="#BB399D"/>
<stop offset="1" stop-color="#F72581"/>
</linearGradient>
<linearGradient id="paint39_linear_234_5884" x1="484.967" y1="1208.29" x2="1919.45" y2="554.305" gradientUnits="userSpaceOnUse">
<stop stop-color="#5C62C5"/>
<stop offset="0.58" stop-color="#B23E9D"/>
<stop offset="1" stop-color="#F52480"/>
</linearGradient>
<linearGradient id="paint40_linear_234_5884" x1="478.53" y1="1208.34" x2="1917.59" y2="552.241" gradientUnits="userSpaceOnUse">
<stop stop-color="#6866B9"/>
<stop offset="0.53" stop-color="#B0439A"/>
<stop offset="1" stop-color="#F3237E"/>
</linearGradient>
<linearGradient id="paint41_linear_234_5884" x1="472.104" y1="1208.41" x2="1915.74" y2="550.198" gradientUnits="userSpaceOnUse">
<stop stop-color="#756BAE"/>
<stop offset="0.51" stop-color="#B24695"/>
<stop offset="1" stop-color="#F1217C"/>
</linearGradient>
<linearGradient id="paint42_linear_234_5884" x1="465.741" y1="1208.52" x2="1913.92" y2="548.204" gradientUnits="userSpaceOnUse">
<stop stop-color="#816FA2"/>
<stop offset="0.51" stop-color="#B7488E"/>
<stop offset="1" stop-color="#EF207A"/>
</linearGradient>
<linearGradient id="paint43_linear_234_5884" x1="458.823" y1="1208.92" x2="1912.11" y2="546.25" gradientUnits="userSpaceOnUse">
<stop stop-color="#8E7397"/>
<stop offset="0.53" stop-color="#BE4887"/>
<stop offset="1" stop-color="#ED1F78"/>
</linearGradient>
<linearGradient id="paint44_linear_234_5884" x1="450.499" y1="1210.11" x2="1910.33" y2="544.438" gradientUnits="userSpaceOnUse">
<stop stop-color="#9B778B"/>
<stop offset="0.51" stop-color="#C14B80"/>
<stop offset="1" stop-color="#EA1E76"/>
</linearGradient>
<linearGradient id="paint45_linear_234_5884" x1="443.123" y1="1214.4" x2="1909.89" y2="545.552" gradientUnits="userSpaceOnUse">
<stop stop-color="#A77B7F"/>
<stop offset="0.45" stop-color="#C2537A"/>
<stop offset="1" stop-color="#E81D74"/>
</linearGradient>
<linearGradient id="paint46_linear_234_5884" x1="438.833" y1="1227.12" x2="1913.17" y2="554.816" gradientUnits="userSpaceOnUse">
<stop stop-color="#B48074"/>
<stop offset="0.39" stop-color="#C55B73"/>
<stop offset="1" stop-color="#E61B72"/>
</linearGradient>
<linearGradient id="paint47_linear_234_5884" x1="433.038" y1="1240.8" x2="1916.55" y2="564.303" gradientUnits="userSpaceOnUse">
<stop stop-color="#C08468"/>
<stop offset="0.35" stop-color="#CB626A"/>
<stop offset="1" stop-color="#E41A70"/>
</linearGradient>
<linearGradient id="paint48_linear_234_5884" x1="438.089" y1="1249.78" x2="1920.01" y2="573.988" gradientUnits="userSpaceOnUse">
<stop stop-color="#CD885C"/>
<stop offset="0.31" stop-color="#D26861"/>
<stop offset="0.99" stop-color="#E11A6E"/>
<stop offset="1" stop-color="#E2196F"/>
</linearGradient>
<linearGradient id="paint49_linear_234_5884" x1="435.765" y1="1262.15" x2="1923.5" y2="583.703" gradientUnits="userSpaceOnUse">
<stop stop-color="#D98C51"/>
<stop offset="0.28" stop-color="#DA6F57"/>
<stop offset="0.89" stop-color="#DF2569"/>
<stop offset="1" stop-color="#E0186D"/>
</linearGradient>
<linearGradient id="paint50_linear_234_5884" x1="433.391" y1="1274.57" x2="1927.07" y2="593.399" gradientUnits="userSpaceOnUse">
<stop stop-color="#E69145"/>
<stop offset="0.25" stop-color="#E4754D"/>
<stop offset="0.8" stop-color="#DF3162"/>
<stop offset="1" stop-color="#DE166B"/>
</linearGradient>
<linearGradient id="paint51_linear_234_5884" x1="430.9" y1="1286.79" x2="1930.59" y2="602.868" gradientUnits="userSpaceOnUse">
<stop stop-color="#F2953A"/>
<stop offset="0.23" stop-color="#ED7B43"/>
<stop offset="0.73" stop-color="#E23A5B"/>
<stop offset="1" stop-color="#DC1569"/>
</linearGradient>
<linearGradient id="paint52_linear_234_5884" x1="428.356" y1="1298.84" x2="1934.06" y2="612.169" gradientUnits="userSpaceOnUse">
<stop stop-color="#FF992E"/>
<stop offset="0.22" stop-color="#F88038"/>
<stop offset="0.67" stop-color="#E74352"/>
<stop offset="1" stop-color="#DA1467"/>
</linearGradient>
<linearGradient id="paint53_linear_234_5884" x1="1805.75" y1="605.059" x2="747.345" y2="963.094" gradientUnits="userSpaceOnUse">
<stop stop-color="#FF87AB"/>
<stop offset="0.08" stop-color="#FF75A6"/>
<stop offset="0.37" stop-color="#FF3897"/>
<stop offset="0.5" stop-color="#FF2191"/>
<stop offset="0.57" stop-color="#F02195"/>
<stop offset="0.69" stop-color="#CA23A2"/>
<stop offset="0.86" stop-color="#8C25B5"/>
<stop offset="1" stop-color="#5B85AA"/>
</linearGradient>
<linearGradient id="paint54_linear_234_5884" x1="1803.71" y1="605.214" x2="707" y2="976.437" gradientUnits="userSpaceOnUse">
<stop stop-color="#EF90AB"/>
<stop offset="0.04" stop-color="#EE86A9"/>
<stop offset="0.36" stop-color="#EE449B"/>
<stop offset="0.5" stop-color="#EE2B96"/>
<stop offset="0.57" stop-color="#DF2A9B"/>
<stop offset="0.7" stop-color="#B92AA8"/>
<stop offset="0.88" stop-color="#7B2ABD"/>
<stop offset="1" stop-color="#512ACC"/>
</linearGradient>
<linearGradient id="paint55_linear_234_5884" x1="1801.88" y1="605.29" x2="666.571" y2="989.764" gradientUnits="userSpaceOnUse">
<stop stop-color="#DE97AA"/>
<stop offset="0.34" stop-color="#DE509F"/>
<stop offset="0.5" stop-color="#DE349B"/>
<stop offset="0.58" stop-color="#CF33A0"/>
<stop offset="0.72" stop-color="#A931AE"/>
<stop offset="0.91" stop-color="#6B2EC4"/>
<stop offset="1" stop-color="#4C2DD0"/>
</linearGradient>
<linearGradient id="paint56_linear_234_5884" x1="1800.28" y1="605.25" x2="626.032" y2="1003.05" gradientUnits="userSpaceOnUse">
<stop stop-color="#D0A1AB"/>
<stop offset="0.33" stop-color="#CD5DA4"/>
<stop offset="0.5" stop-color="#CD3EA1"/>
<stop offset="0.58" stop-color="#BE3CA6"/>
<stop offset="0.73" stop-color="#9838B5"/>
<stop offset="0.94" stop-color="#5A31CD"/>
<stop offset="1" stop-color="#482FD5"/>
</linearGradient>
<linearGradient id="paint57_linear_234_5884" x1="1798.79" y1="605.133" x2="585.398" y2="1016.29" gradientUnits="userSpaceOnUse">
<stop stop-color="#C0A9AB"/>
<stop offset="0.31" stop-color="#BE6AA7"/>
<stop offset="0.5" stop-color="#BD48A6"/>
<stop offset="0.59" stop-color="#AE45AC"/>
<stop offset="0.75" stop-color="#883EBC"/>
<stop offset="0.98" stop-color="#4A33D6"/>
<stop offset="1" stop-color="#4432D9"/>
</linearGradient>
<linearGradient id="paint58_linear_234_5884" x1="1797.31" y1="604.988" x2="544.704" y2="1029.47" gradientUnits="userSpaceOnUse">
<stop stop-color="#B0B2AB"/>
<stop offset="0.29" stop-color="#AD77AB"/>
<stop offset="0.5" stop-color="#AC51AB"/>
<stop offset="0.6" stop-color="#9D4DB1"/>
<stop offset="0.77" stop-color="#7742C3"/>
<stop offset="1" stop-color="#3F34DD"/>
</linearGradient>
<linearGradient id="paint59_linear_234_5884" x1="1795.84" y1="604.786" x2="503.912" y2="1042.58" gradientUnits="userSpaceOnUse">
<stop stop-color="#A0BBAB"/>
<stop offset="0.26" stop-color="#9D87AD"/>
<stop offset="0.5" stop-color="#9B5BB0"/>
<stop offset="0.61" stop-color="#8C55B7"/>
<stop offset="0.8" stop-color="#6646CA"/>
<stop offset="1" stop-color="#3B36E1"/>
</linearGradient>
<linearGradient id="paint60_linear_234_5884" x1="1794.37" y1="604.558" x2="463.053" y2="1055.64" gradientUnits="userSpaceOnUse">
<stop stop-color="#91C3AA"/>
<stop offset="0.22" stop-color="#8E98AF"/>
<stop offset="0.5" stop-color="#8B65B6"/>
<stop offset="0.62" stop-color="#7C5DBE"/>
<stop offset="0.84" stop-color="#5649D4"/>
<stop offset="1" stop-color="#3739E6"/>
</linearGradient>
<linearGradient id="paint61_linear_234_5884" x1="1792.91" y1="604.331" x2="422.157" y2="1068.66" gradientUnits="userSpaceOnUse">
<stop stop-color="#81CCAA"/>
<stop offset="0.16" stop-color="#7EADAF"/>
<stop offset="0.5" stop-color="#7A6FBB"/>
<stop offset="0.64" stop-color="#6B64C4"/>
<stop offset="0.89" stop-color="#4548DD"/>
<stop offset="1" stop-color="#333BEA"/>
</linearGradient>
<linearGradient id="paint62_linear_234_5884" x1="1791.44" y1="604.03" x2="381.154" y2="1081.58" gradientUnits="userSpaceOnUse">
<stop stop-color="#71D5AA"/>
<stop offset="0.08" stop-color="#6FC5AD"/>
<stop offset="0.5" stop-color="#6978C0"/>
<stop offset="0.66" stop-color="#5A69CB"/>
<stop offset="0.95" stop-color="#3443E8"/>
<stop offset="1" stop-color="#2E3DEE"/>
</linearGradient>
<linearGradient id="paint63_linear_234_5884" x1="1789.99" y1="603.72" x2="340.112" y2="1094.44" gradientUnits="userSpaceOnUse">
<stop stop-color="#61DDAA"/>
<stop offset="0.5" stop-color="#5982C5"/>
<stop offset="0.64" stop-color="#4E73CE"/>
<stop offset="0.91" stop-color="#334DE8"/>
<stop offset="1" stop-color="#2A40F2"/>
</linearGradient>
<linearGradient id="paint64_linear_234_5884" x1="1788.52" y1="603.383" x2="298.996" y2="1107.24" gradientUnits="userSpaceOnUse">
<stop stop-color="#52E6AA"/>
<stop offset="0.5" stop-color="#488CCB"/>
<stop offset="0.63" stop-color="#417DD3"/>
<stop offset="0.88" stop-color="#2F57EA"/>
<stop offset="1" stop-color="#2642F7"/>
</linearGradient>
<linearGradient id="paint65_linear_234_5884" x1="1787.03" y1="602.993" x2="257.799" y2="1119.93" gradientUnits="userSpaceOnUse">
<stop stop-color="#F9A86F"/>
<stop offset="0.5" stop-color="#3895D0"/>
<stop offset="0.62" stop-color="#3386D7"/>
<stop offset="0.85" stop-color="#2860EC"/>
<stop offset="1" stop-color="#2145FB"/>
</linearGradient>
<linearGradient id="paint66_linear_234_5884" x1="1785.55" y1="602.572" x2="216.576" y2="1132.54" gradientUnits="userSpaceOnUse">
<stop stop-color="#FCA96D"/>
<stop offset="1" stop-color="#1D47FF"/>
</linearGradient>
<linearGradient id="paint67_linear_234_5884" x1="1780.08" y1="598.076" x2="239.055" y2="1118.71" gradientUnits="userSpaceOnUse">
<stop stop-color="#FEAA6C"/>
<stop offset="1" stop-color="#2E47FC"/>
</linearGradient>
<linearGradient id="paint68_linear_234_5884" x1="1774.58" y1="593.558" x2="256.247" y2="1106.61" gradientUnits="userSpaceOnUse">
<stop stop-color="#FCAA6D"/>
<stop offset="1" stop-color="#4047F9"/>
</linearGradient>
<linearGradient id="paint69_linear_234_5884" x1="1769.02" y1="589.081" x2="263.762" y2="1097.76" gradientUnits="userSpaceOnUse">
<stop stop-color="#58C7B8"/>
<stop offset="1" stop-color="#5147F6"/>
</linearGradient>
<linearGradient id="paint70_linear_234_5884" x1="1763.52" y1="585.045" x2="264.453" y2="1091.61" gradientUnits="userSpaceOnUse">
<stop stop-color="#65B7BD"/>
<stop offset="1" stop-color="#6347F2"/>
</linearGradient>
<linearGradient id="paint71_linear_234_5884" x1="1758.06" y1="581.171" x2="265.195" y2="1085.61" gradientUnits="userSpaceOnUse">
<stop stop-color="#72A7C1"/>
<stop offset="1" stop-color="#7447EF"/>
</linearGradient>
<linearGradient id="paint72_linear_234_5884" x1="1752.5" y1="577.093" x2="265.799" y2="1079.42" gradientUnits="userSpaceOnUse">
<stop stop-color="#7F97C6"/>
<stop offset="1" stop-color="#8547EC"/>
</linearGradient>
<linearGradient id="paint73_linear_234_5884" x1="1746.96" y1="573.09" x2="265.962" y2="1073.46" gradientUnits="userSpaceOnUse">
<stop stop-color="#8B87CB"/>
<stop offset="1" stop-color="#9746E9"/>
</linearGradient>
<linearGradient id="paint74_linear_234_5884" x1="1741.54" y1="569.083" x2="266.053" y2="1067.56" gradientUnits="userSpaceOnUse">
<stop stop-color="#161539"/>
<stop offset="1" stop-color="#A846E6"/>
</linearGradient>
<linearGradient id="paint75_linear_234_5884" x1="1729.96" y1="558.066" x2="265.598" y2="1052.79" gradientUnits="userSpaceOnUse">
<stop stop-color="#B257D9"/>
<stop offset="1" stop-color="#CB46DF"/>
</linearGradient>
<linearGradient id="paint76_linear_234_5884" x1="1724.1" y1="552.571" x2="265.468" y2="1045.39" gradientUnits="userSpaceOnUse">
<stop stop-color="#BE47DE"/>
<stop offset="1" stop-color="#DC46DC"/>
</linearGradient>
<linearGradient id="paint77_linear_234_5884" x1="1718.25" y1="547.191" x2="265.417" y2="1038.08" gradientUnits="userSpaceOnUse">
<stop stop-color="#CB37E2"/>
<stop offset="1" stop-color="#EE46D9"/>
</linearGradient>
<linearGradient id="paint78_linear_234_5884" x1="1712.4" y1="541.941" x2="265.441" y2="1030.88" gradientUnits="userSpaceOnUse">
<stop stop-color="#D827E7"/>
<stop offset="1" stop-color="#FF46D6"/>
</linearGradient>
<linearGradient id="paint79_linear_234_5884" x1="49.3227" y1="50.0269" x2="277.639" y2="267.598" gradientUnits="userSpaceOnUse">
<stop stop-color="#F8A76F"/>
<stop offset="1" stop-color="#4B47D9"/>
</linearGradient>
<linearGradient id="paint80_linear_234_5884" x1="64.4876" y1="67.1829" x2="370.598" y2="351.181" gradientUnits="userSpaceOnUse">
<stop stop-color="#F8A76F"/>
<stop offset="1" stop-color="#4B47D9"/>
</linearGradient>
</defs>
</svg>
